<?xml version="1.0" encoding="utf-8"?>
<!-- Generator: Adobe Illustrator 16.0.0, SVG Export Plug-In . SVG Version: 6.00 Build 0)  -->
<svg version="1.2" baseProfile="tiny"
	 id="svg4764" xmlns:svg="http://www.w3.org/2000/svg" xmlns:rdf="http://www.w3.org/1999/02/22-rdf-syntax-ns#" xmlns:dc="http://purl.org/dc/elements/1.1/" xmlns:inkscape="http://www.inkscape.org/namespaces/inkscape" xmlns:sodipodi="http://sodipodi.sourceforge.net/DTD/sodipodi-0.dtd" xmlns:cc="http://creativecommons.org/ns#" sodipodi:docname="pulex_font1a.svg" inkscape:version="0.91 r13725"
	 xmlns="http://www.w3.org/2000/svg" xmlns:xlink="http://www.w3.org/1999/xlink" x="0px" y="0px" width="285.015625px"
	 height="285.03125px" viewBox="0 0 285.015625 285.03125" xml:space="preserve">
<g id="layer1" transform="translate(0,-308.26772)" inkscape:label="Layer 1" inkscape:groupmode="layer">
	<path fill="#FE6700" d="M0,308.2677002v285.03125h285.015625v-285.03125H0z M271.9775391,580.2530518H12.987793v-258.949707
		h258.9897461V580.2530518z"/>
	
		<path id="path5273-8" inkscape:connector-curvature="0" sodipodi:nodetypes="cccc" inkscape:export-ydpi="90" inkscape:export-xdpi="90" fill="#FE6700" d="
		M22.8066406,347.0426025l105.7324219,102.9267578H22.8066406V347.0426025z"/>
	
		<path id="path5273-2-5" inkscape:connector-curvature="0" sodipodi:nodetypes="cccc" inkscape:export-ydpi="90" inkscape:export-xdpi="90" fill="#FE6700" d="
		M260.2617188,347.050415l-105.734375,102.9257813h105.734375V347.050415z"/>
	
		<path id="path5273-0-0" inkscape:connector-curvature="0" sodipodi:nodetypes="cccc" inkscape:export-ydpi="90" inkscape:export-xdpi="90" fill="#BC0018" d="
		M22.6757813,465.9434814l105.734375,102.9277344H22.6757813V465.9434814z"/>
	<path id="path5307-5" inkscape:connector-curvature="0" inkscape:export-ydpi="90" inkscape:export-xdpi="90" fill="#FE6700" d="
		M27.4140625,459.6231689h101.8769531L80.796875,508.1153564L27.4140625,459.6231689z"/>
	<path id="path5307-1-7" inkscape:connector-curvature="0" inkscape:export-ydpi="90" inkscape:export-xdpi="90" fill="#FE6700" d="
		M153.8535156,459.6466064h101.8769531l-48.4941406,48.4941406L153.8535156,459.6466064z"/>
	<path id="path5328-92" inkscape:connector-curvature="0" inkscape:export-ydpi="90" inkscape:export-xdpi="90" fill="#FE6700" d="
		M141.7695313,459.6368408l-53.6816406,53.6816406l54.2421875,54.2421875l54.4023438-54.4023438L141.7695313,459.6368408z"/>
	
		<path id="path5330-7" inkscape:connector-curvature="0" sodipodi:nodetypes="ccccc" inkscape:export-ydpi="90" inkscape:export-xdpi="90" fill="#BC0018" d="
		M201.9882813,389.963501l-57.0410156-57.2802734L22.8984375,332.276001l119.1582031,116.2158203L201.9882813,389.963501z"/>
</g>
</svg>
