<?xml version="1.0" encoding="utf-8"?>
<!-- Generator: Adobe Illustrator 16.0.3, SVG Export Plug-In . SVG Version: 6.00 Build 0)  -->
<svg version="1.2" baseProfile="tiny" id="Logo__x2014__FIXED_1_"
	 xmlns="http://www.w3.org/2000/svg" xmlns:xlink="http://www.w3.org/1999/xlink" x="0px" y="0px" width="250px"
	 height="203.0019531px" viewBox="0 0 250 203.0019531" xml:space="preserve">
<g id="Logo__x2014__FIXED">
	<path fill="#1DA1F2" d="M250,24.0332031c-9.1914063,4.0791016-19.0800781,6.828125-29.4550781,8.0673828
		c10.5878906-6.3427734,18.71875-16.3818359,22.5537109-28.3476563
		c-9.9130859,5.8701172-20.8857422,10.1396484-32.5683594,12.4384766C201.1699219,6.2314453,187.8417969,0,173.0908203,0
		c-28.328125,0-51.2993164,22.9521484-51.2993164,51.2431641c0,4.0224609,0.4511719,7.9326172,1.3310547,11.6855469
		C80.4951172,60.7871094,42.6948242,40.3935547,17.4003906,9.3857422
		c-4.4091797,7.5722656-6.9467773,16.3720703-6.9467773,25.7578125c0,17.7792969,9.0556641,33.4746094,22.824707,42.6572266
		c-8.4125977-0.2587891-16.3178711-2.5693359-23.2304688-6.4111328c-0.0112305,0.2138672-0.0112305,0.4287109-0.0112305,0.6533203
		c0,24.8222656,17.6821289,45.5419922,41.1499023,50.2412109c-4.3081055,1.1708984-8.8413086,1.8027344-13.5214844,1.8027344
		c-3.3041992,0-6.5180664-0.3271484-9.6416016-0.9248047c6.5292969,20.3603516,25.4633789,35.1767578,47.9160156,35.59375
		c-17.5585938,13.7460938-39.6728516,21.9375-63.7041016,21.9375c-4.1386719,0-8.2207031-0.2363281-12.2353516-0.7099609
		c22.7006836,14.5341797,49.652832,23.0185547,78.6230469,23.0185547c94.34375,0,145.9355469-78.0927734,145.9355469-145.8095703
		c0-2.21875-0.0449219-4.4277344-0.1464844-6.625C234.4257813,43.3339844,243.1328125,34.3085938,250,24.0332031z"/>
</g>
</svg>
